<?xml version="1.0" standalone="no"?>
<!DOCTYPE svg PUBLIC "-//W3C//DTD SVG 20010904//EN"
 "http://www.w3.org/TR/2001/REC-SVG-20010904/DTD/svg10.dtd">
<svg version="1.0" xmlns="http://www.w3.org/2000/svg"
 width="267.000000pt" height="267.000000pt" viewBox="0 0 267.000000 267.000000"
 preserveAspectRatio="xMidYMid meet">
<metadata>
Created by potrace 1.11, written by Peter Selinger 2001-2013
</metadata>
<g transform="translate(0.000000,267.000000) scale(0.100000,-0.100000)"
fill="#000000" stroke="none">
<path d="M1247 2634 c-1 -1 -33 -5 -72 -9 -125 -12 -251 -45 -363 -96 -35 -16
-65 -29 -68 -29 -13 0 -178 -110 -229 -153 -98 -83 -275 -278 -275 -303 0 -4
-6 -15 -14 -23 -26 -29 -86 -152 -115 -236 -114 -321 -98 -703 40 -1000 23
-50 115 -206 128 -215 3 -3 18 -21 33 -40 71 -95 209 -220 323 -293 163 -104
314 -160 521 -193 105 -17 338 -8 444 16 25 6 54 12 65 14 11 2 65 21 120 41
189 71 309 149 460 300 220 219 339 454 381 751 9 67 11 249 3 304 -4 25 -10
66 -13 92 -22 165 -111 373 -229 538 -63 88 -244 260 -340 323 -136 91 -310
164 -428 182 -24 4 -46 8 -49 10 -13 8 -315 25 -323 19z m283 -193 c242 -42
438 -147 619 -336 172 -179 271 -389 298 -630 35 -309 -44 -608 -221 -830
-147 -186 -368 -337 -576 -393 -118 -33 -136 -35 -305 -38 -141 -3 -172 0
-263 21 -226 54 -375 137 -543 305 -178 177 -270 351 -313 589 -13 71 -15 332
-4 391 3 14 9 43 13 65 30 170 135 364 277 513 211 221 420 325 713 355 58 6
241 -1 305 -12z"/>
<path d="M989 1958 c0 -13 -1 -129 0 -259 l0 -235 -322 -1 c-177 -1 -331 -2
-342 -3 -11 0 106 -48 260 -106 154 -58 298 -112 320 -121 22 -8 50 -19 62
-24 21 -8 21 -11 21 -221 0 -117 0 -233 1 -258 l1 -46 123 2 c67 1 125 2 129
3 3 0 6 114 6 251 -1 138 2 253 5 256 5 5 87 8 145 5 l22 -1 0 -258 0 -257
128 0 127 0 1 251 c0 138 3 255 7 260 3 5 154 66 336 134 182 68 331 127 331
130 0 3 -151 4 -335 3 -310 -2 -335 -1 -336 15 0 9 -1 126 -1 260 l-1 242
-128 0 -129 0 0 -259 0 -258 -85 -1 -85 -1 -1 27 c0 15 0 132 0 260 l0 232
-130 0 c-127 0 -129 0 -130 -22z"/>
</g>
</svg>
